<svg xmlns="http://www.w3.org/2000/svg" width="50" height="50" viewBox="0 0 50 50">
  <style>
    .st0{fill:#ECF0F1;} .st1{fill:#206F9E;}
  </style>
  <path class="st0" d="M17.6 39.2l-7.5 4.1c-.4.2-.8.5-1.2.9 4.3 3.7 10 5.9 16.1 5.9 6.1 0 11.7-2.2 16-5.8-.4-.3-.8-.6-1.3-.9l-8-4c-1-.5-1.7-1.6-1.7-2.7v-3.1c.2-.3.5-.6.8-1 1.1-1.5 1.9-3.2 2.5-5 1-.3 1.8-1.3 1.8-2.4v-3.3c0-.7-.3-1.4-.8-1.9v-4.8s1-7.5-9.2-7.5-9.2 7.5-9.2 7.5V20c-.6.4-.9 1-.9 1.8v3.3c0 .9.5 1.7 1.2 2.1.8 3.6 3 6.3 3 6.3v3.1c-.1 1-.7 2.1-1.6 2.6zm0 0"/>
  <path class="st1" d="M25.4 0C11.6-.2.2 10.8 0 24.6c-.1 7.8 3.4 14.9 8.9 19.5.4-.3.8-.6 1.2-.8l7.5-4.1c1-.5 1.6-1.6 1.6-2.7v-3.1s-2.2-2.6-3-6.3c-.8-.3-1.2-1.1-1.2-2v-3.3c0-.7.3-1.4.8-1.9v-4.8s-1-7.5 9.2-7.5 9.2 7.5 9.2 7.5v4.8c.5.5.8 1.1.8 1.9v3.3c0 1.1-.8 2.1-1.8 2.4-.6 1.8-1.4 3.5-2.5 5-.3.4-.5.7-.8 1v3.1c0 1.2.6 2.2 1.7 2.7l8 4c.5.2.9.5 1.3.9 5.4-4.5 8.9-11.2 9-18.8C50.2 11.6 39.2.2 25.4 0zm0 0"/>
</svg>
