<svg xmlns="http://www.w3.org/2000/svg" width="24.5" height="24.5" viewBox="0 0 24.5 24.5">
  <style>
    .st0{fill:#FFFFFF;}
  </style>
  <path class="st0" d="M10 8.8c0 1.2-1 2.1-2.1 2.1s-2.1-1-2.1-2.1c0-1.2 1-2.1 2.1-2.1s2.1.9 2.1 2.1zm8.7 0c0 1.2-1 2.1-2.1 2.1-1.2 0-2.1-1-2.1-2.1 0-1.2 1-2.1 2.1-2.1 1.2-.1 2.1.9 2.1 2.1zM6.9 18.2c.2-.2 5.4-3.9 10.7 0l.9-1.2C12.3 12.3 6 16.9 6 17l.9 1.2zm0 0"/>
  <path class="st0" d="M3.5 24.5H21c1.9 0 3.5-1.6 3.5-3.5V3.5c0-2-1.6-3.5-3.5-3.5H3.5C1.6 0 0 1.5 0 3.5V21c0 1.9 1.6 3.5 3.5 3.5zm-2-21c0-1.1.9-1.9 1.9-1.9H21c1.1 0 1.9.9 1.9 1.9V21c0 1.1-.9 1.9-1.9 1.9H3.5c-1.1 0-1.9-.9-1.9-1.9V3.5zm0 0"/>
</svg>
